# xmcd
# Track frame offsets:
# 150
# 11825
# 22050
# 32572
# 43662
# 56497
# 66525
# 76642
# 86375
# 101550
# 112147
# 124522
# 134610
# 144787
# 158497
# 171875
# 182947
# 192950
# 202950
# 213650
# 224962
# 236572
# 245535
# 255772
# 271475
# 280947
# 297822
# 309585
# 321800
# 331587
#
# Disc length: 4566 seconds
# Revision: 0
# Processed by: cddbd v1.5.2PL0 Copyright (c) Steve Scherf et al.
# Submitted via: VisiTrax 2.10.3.257 - For more info visit www.synapsa.com
#
DISCID=b811d41e
DTITLE=Patsy Cline - Patsy Cline  Sweet Dreams  30 Legendary Hits
DYEAR=1900
DGENRE=
TTITLE0=Walking After Midnight
TTITLE1=Three Cigarettes In An Ashtray
TTITLE2=Lovesick Blues
TTITLE3=There He Goes
TTITLE4=I Fall To Pieces
TTITLE5=Seven Lonely Days
TTITLE6=I Love You So Much It Hurts
TTITLE7=True Love
TTITLE8=The Wayward Wind
TTITLE9=San Antonio Rose
TTITLE10=Crazy
TTITLE11=Foolin' Around
TTITLE12=Strange
TTITLE13=She's Got You
TTITLE14=I Can't Help It (If I'm Still In Love With You)
TTITLE15=South Of The Border (Down Mexico Way)
TTITLE16=Have You Ever Been Lonely (Have You Ever Been Blue)
TTITLE17=Heartaches
TTITLE18=Your Cheatin' Heart
TTITLE19=Half As Much
TTITLE20=Lonely Street
TTITLE21=Anytime
TTITLE22=That's How A Heartache Begins
TTITLE23=Why Can't He Be You
TTITLE24=Back In Baby's Arms
TTITLE25=Faded Love
TTITLE26=Sweet Dreams (Of You)
TTITLE27=Always
TTITLE28=Blue Moon Of Kentucky
TTITLE29=Crazy Arms
EXTD=
EXTT0=
EXTT1=
EXTT2=
EXTT3=
EXTT4=
EXTT5=
EXTT6=
EXTT7=
EXTT8=
EXTT9=
EXTT10=
EXTT11=
EXTT12=
EXTT13=
EXTT14=
EXTT15=
EXTT16=
EXTT17=
EXTT18=
EXTT19=
EXTT20=
EXTT21=
EXTT22=
EXTT23=
EXTT24=
EXTT25=
EXTT26=
EXTT27=
EXTT28=
EXTT29=
PLAYORDER=
